{
  "accessors": [
    {
      "bufferView": 0,
      "componentType": 5126,
      "count": 515,
      "type": "VEC3",
      "max": [
        0.5,
        0.5,
        0.5
      ],
      "min": [
        -0.5,
        -0.5,
        -0.5
      ]
    },
    {
      "bufferView": 1,
      "componentType": 5126,
      "count": 515,
      "type": "VEC3",
      "max": [
        0.99997496604919434,
        1.0,
        0.9999769926071167
      ],
      "min": [
        -0.99997496604919434,
        -1.0,
        -0.99997353553771973
      ]
    },
    {
      "bufferView": 2,
      "componentType": 5126,
      "count": 515,
      "type": "VEC4",
      "max": [
        1.0,
        0.056131001561880112,
        1.0,
        1.0
      ],
      "min": [
        -1.0,
        -0.065983392298221588,
        -1.0,
        -1.0
      ]
    },
    {
      "bufferView": 3,
      "componentType": 5126,
      "count": 515,
      "type": "VEC2",
      "max": [
        0.99833369255065918,
        0.97589123249053955
      ],
      "min": [
        -0.00092136859893798828,
        0.017628978937864304
      ]
    },
    {
      "bufferView": 4,
      "componentType": 5126,
      "count": 515,
      "type": "VEC2",
      "max": [
        1.0000003576278687,
        0.65385353565216064
      ],
      "min": [
        0.0,
        0.0
      ]
    },
    {
      "bufferView": 5,
      "componentType": 5125,
      "count": 2304,
      "type": "SCALAR",
      "max": [
        514.0
      ],
      "min": [
        0.0
      ]
    }
  ],
  "asset": {
    "generator": "Plattar UnityGLTF (2019.2.18f1)",
    "version": "2.0"
  },
  "buffers": [
    {
      "uri": "AR-d100.bin",
      "byteLength": 38056
    }
  ],
  "bufferViews": [
    {
      "buffer": 0,
      "byteLength": 6180
    },
    {
      "buffer": 0,
      "byteOffset": 6180,
      "byteLength": 6180
    },
    {
      "buffer": 0,
      "byteOffset": 12360,
      "byteLength": 8240
    },
    {
      "buffer": 0,
      "byteOffset": 20600,
      "byteLength": 4120
    },
    {
      "buffer": 0,
      "byteOffset": 24720,
      "byteLength": 4120
    },
    {
      "buffer": 0,
      "byteOffset": 28840,
      "byteLength": 9216
    }
  ],
  "materials": [
    {
      "pbrMetallicRoughness": {
        "baseColorFactor": [
          1.0,
          0.0,
          0.0,
          0.356862754
        ],
        "metallicFactor": 0.0,
        "roughnessFactor": 0.5
      },
      "alphaMode": "BLEND",
      "name": "realisticRed"
    }
  ],
  "meshes": [
    {
      "primitives": [
        {
          "attributes": {
            "POSITION": 0,
            "NORMAL": 1,
            "TANGENT": 2,
            "TEXCOORD_0": 3,
            "TEXCOORD_1": 4
          },
          "indices": 5,
          "material": 0
        }
      ],
      "name": "Sphere"
    }
  ],
  "nodes": [
    {
      "children": [
        1
      ],
      "rotation": [
        0.0,
        0.0,
        0.0,
        -1.0
      ],
      "name": "AR-d100"
    },
    {
      "children": [
        2
      ],
      "rotation": [
        0.0,
        0.0,
        0.0,
        -1.0
      ],
      "translation": [
        0.0,
        0.0,
        2.92
      ],
      "name": "UcttVis"
    },
    {
      "children": [
        3,
        7,
        10,
        13,
        15,
        17,
        21,
        25,
        28,
        31
      ],
      "rotation": [
        0.0,
        0.0,
        0.0,
        -1.0
      ],
      "name": "QDP-realRender"
    },
    {
      "children": [
        4,
        5,
        6
      ],
      "rotation": [
        0.0,
        0.0,
        0.0,
        -1.0
      ],
      "translation": [
        0.32067,
        0.0,
        0.0
      ],
      "name": "Line1"
    },
    {
      "mesh": 0,
      "rotation": [
        0.0,
        0.0,
        0.0,
        -1.0
      ],
      "scale": [
        0.3,
        0.3,
        0.3
      ],
      "translation": [
        0.0,
        0.15,
        0.0
      ],
      "name": "Sphere"
    },
    {
      "mesh": 0,
      "rotation": [
        0.0,
        0.0,
        0.0,
        -1.0
      ],
      "scale": [
        0.3,
        0.3,
        0.3
      ],
      "translation": [
        0.0,
        0.45,
        0.0
      ],
      "name": "Sphere (1)"
    },
    {
      "mesh": 0,
      "rotation": [
        0.0,
        0.0,
        0.0,
        -1.0
      ],
      "scale": [
        0.3,
        0.3,
        0.3
      ],
      "translation": [
        0.0,
        0.75,
        0.0
      ],
      "name": "Sphere (2)"
    },
    {
      "children": [
        8,
        9
      ],
      "rotation": [
        0.0,
        0.0,
        0.0,
        -1.0
      ],
      "translation": [
        0.6765,
        0.0,
        0.0
      ],
      "name": "Line2"
    },
    {
      "mesh": 0,
      "rotation": [
        0.0,
        0.0,
        0.0,
        -1.0
      ],
      "scale": [
        0.3,
        0.3,
        0.3
      ],
      "translation": [
        0.0,
        0.15,
        0.0
      ],
      "name": "Sphere"
    },
    {
      "mesh": 0,
      "rotation": [
        0.0,
        0.0,
        0.0,
        -1.0
      ],
      "scale": [
        0.3,
        0.3,
        0.3
      ],
      "translation": [
        0.0,
        0.45,
        0.0
      ],
      "name": "Sphere (1)"
    },
    {
      "children": [
        11,
        12
      ],
      "rotation": [
        0.0,
        0.0,
        0.0,
        -1.0
      ],
      "translation": [
        1.0425,
        0.0,
        0.0
      ],
      "name": "Line3"
    },
    {
      "mesh": 0,
      "rotation": [
        0.0,
        0.0,
        0.0,
        -1.0
      ],
      "scale": [
        0.3,
        0.3,
        0.3
      ],
      "translation": [
        0.0,
        0.15,
        0.0
      ],
      "name": "Sphere"
    },
    {
      "mesh": 0,
      "rotation": [
        0.0,
        0.0,
        0.0,
        -1.0
      ],
      "scale": [
        0.3,
        0.3,
        0.3
      ],
      "translation": [
        0.0,
        0.45,
        0.0
      ],
      "name": "Sphere (1)"
    },
    {
      "children": [
        14
      ],
      "rotation": [
        0.0,
        0.0,
        0.0,
        -1.0
      ],
      "translation": [
        1.44,
        0.0,
        0.0
      ],
      "name": "Line4"
    },
    {
      "mesh": 0,
      "rotation": [
        0.0,
        0.0,
        0.0,
        -1.0
      ],
      "scale": [
        0.3,
        0.3,
        0.3
      ],
      "translation": [
        0.0,
        0.15,
        0.0
      ],
      "name": "Sphere"
    },
    {
      "children": [
        16
      ],
      "rotation": [
        0.0,
        0.0,
        0.0,
        -1.0
      ],
      "translation": [
        1.96,
        0.0,
        0.0
      ],
      "name": "Line4.5"
    },
    {
      "mesh": 0,
      "rotation": [
        0.0,
        0.0,
        0.0,
        -1.0
      ],
      "scale": [
        0.3,
        0.3,
        0.3
      ],
      "translation": [
        0.0,
        0.15,
        0.0
      ],
      "name": "Sphere"
    },
    {
      "children": [
        18,
        19,
        20
      ],
      "rotation": [
        0.0,
        0.0,
        0.0,
        -1.0
      ],
      "translation": [
        -0.063,
        0.0,
        0.0
      ],
      "name": "Line5"
    },
    {
      "mesh": 0,
      "rotation": [
        0.0,
        0.0,
        0.0,
        -1.0
      ],
      "scale": [
        0.3,
        0.3,
        0.3
      ],
      "translation": [
        0.0,
        0.15,
        0.0
      ],
      "name": "Sphere"
    },
    {
      "mesh": 0,
      "rotation": [
        0.0,
        0.0,
        0.0,
        -1.0
      ],
      "scale": [
        0.3,
        0.3,
        0.3
      ],
      "translation": [
        0.0,
        0.45,
        0.0
      ],
      "name": "Sphere (1)"
    },
    {
      "mesh": 0,
      "rotation": [
        0.0,
        0.0,
        0.0,
        -1.0
      ],
      "scale": [
        0.3,
        0.3,
        0.3
      ],
      "translation": [
        0.0,
        0.75,
        0.0
      ],
      "name": "Sphere (2)"
    },
    {
      "children": [
        22,
        23,
        24
      ],
      "rotation": [
        0.0,
        0.0,
        0.0,
        -1.0
      ],
      "translation": [
        -0.457,
        0.0,
        0.0
      ],
      "name": "Line6"
    },
    {
      "mesh": 0,
      "rotation": [
        0.0,
        0.0,
        0.0,
        -1.0
      ],
      "scale": [
        0.3,
        0.3,
        0.3
      ],
      "translation": [
        0.0,
        0.15,
        0.0
      ],
      "name": "Sphere"
    },
    {
      "mesh": 0,
      "rotation": [
        0.0,
        0.0,
        0.0,
        -1.0
      ],
      "scale": [
        0.3,
        0.3,
        0.3
      ],
      "translation": [
        0.0,
        0.45,
        0.0
      ],
      "name": "Sphere (1)"
    },
    {
      "mesh": 0,
      "rotation": [
        0.0,
        0.0,
        0.0,
        -1.0
      ],
      "scale": [
        0.3,
        0.3,
        0.3
      ],
      "translation": [
        0.0,
        0.75,
        0.0
      ],
      "name": "Sphere (2)"
    },
    {
      "children": [
        26,
        27
      ],
      "rotation": [
        0.0,
        0.0,
        0.0,
        -1.0
      ],
      "translation": [
        -0.845,
        0.0,
        0.0
      ],
      "name": "Line6.5"
    },
    {
      "mesh": 0,
      "rotation": [
        0.0,
        0.0,
        0.0,
        -1.0
      ],
      "scale": [
        0.3,
        0.3,
        0.3
      ],
      "translation": [
        0.0,
        0.15,
        0.0
      ],
      "name": "Sphere"
    },
    {
      "mesh": 0,
      "rotation": [
        0.0,
        0.0,
        0.0,
        -1.0
      ],
      "scale": [
        0.3,
        0.3,
        0.3
      ],
      "translation": [
        0.0,
        0.45,
        0.0
      ],
      "name": "Sphere (1)"
    },
    {
      "children": [
        29,
        30
      ],
      "rotation": [
        0.0,
        0.0,
        0.0,
        -1.0
      ],
      "translation": [
        -1.259,
        0.0,
        0.0
      ],
      "name": "Line7"
    },
    {
      "mesh": 0,
      "rotation": [
        0.0,
        0.0,
        0.0,
        -1.0
      ],
      "scale": [
        0.3,
        0.3,
        0.3
      ],
      "translation": [
        0.0,
        0.15,
        0.0
      ],
      "name": "Sphere"
    },
    {
      "mesh": 0,
      "rotation": [
        0.0,
        0.0,
        0.0,
        -1.0
      ],
      "scale": [
        0.3,
        0.3,
        0.3
      ],
      "translation": [
        0.0,
        0.45,
        0.0
      ],
      "name": "Sphere (1)"
    },
    {
      "children": [
        32
      ],
      "rotation": [
        0.0,
        0.0,
        0.0,
        -1.0
      ],
      "translation": [
        -1.96,
        0.0,
        0.0
      ],
      "name": "Line8"
    },
    {
      "mesh": 0,
      "rotation": [
        0.0,
        0.0,
        0.0,
        -1.0
      ],
      "scale": [
        0.3,
        0.3,
        0.3
      ],
      "translation": [
        0.0,
        0.15,
        0.0
      ],
      "name": "Sphere"
    }
  ],
  "scene": 0,
  "scenes": [
    {
      "nodes": [
        0
      ],
      "name": "AR-d100"
    }
  ]
}