{
  "accessors": [
    {
      "bufferView": 0,
      "componentType": 5126,
      "count": 1757,
      "type": "VEC3",
      "max": [
        1.2852175235748291,
        0.3776073157787323,
        2.5786852836608887
      ],
      "min": [
        -0.90458130836486816,
        -0.51927191019058228,
        0.0050132600590586662
      ]
    },
    {
      "bufferView": 1,
      "componentType": 5126,
      "count": 1757,
      "type": "VEC3",
      "max": [
        0.99996733665466309,
        0.99997377395629883,
        0.99680054187774658
      ],
      "min": [
        -0.99996733665466309,
        -0.99982267618179321,
        -0.99254590272903442
      ]
    },
    {
      "bufferView": 2,
      "componentType": 5126,
      "count": 1757,
      "type": "VEC4",
      "max": [
        1.0,
        0.99965572357177734,
        0.98799848556518555,
        1.0
      ],
      "min": [
        -1.0,
        -0.99996376037597656,
        -0.99201583862304688,
        -1.0
      ]
    },
    {
      "bufferView": 3,
      "componentType": 5126,
      "count": 1757,
      "type": "VEC2",
      "max": [
        0.99568593502044678,
        0.99731242656707764
      ],
      "min": [
        0.0012280354276299477,
        0.0036461593117564917
      ]
    },
    {
      "bufferView": 4,
      "componentType": 5125,
      "count": 4332,
      "type": "SCALAR",
      "max": [
        1329.0
      ],
      "min": [
        0.0
      ]
    },
    {
      "bufferView": 5,
      "componentType": 5125,
      "count": 906,
      "type": "SCALAR",
      "max": [
        1756.0
      ],
      "min": [
        1330.0
      ]
    },
    {
      "bufferView": 6,
      "componentType": 5126,
      "count": 20,
      "type": "MAT4"
    },
    {
      "bufferView": 7,
      "componentType": 5123,
      "count": 1757,
      "type": "VEC4",
      "max": [
        19.0,
        19.0,
        19.0,
        0.0
      ],
      "min": [
        0.0,
        0.0,
        0.0,
        0.0
      ]
    },
    {
      "bufferView": 8,
      "componentType": 5126,
      "count": 1757,
      "type": "VEC4",
      "max": [
        1.0,
        0.5,
        0.19999998807907104,
        0.0
      ],
      "min": [
        0.43636366724967957,
        0.0,
        0.0,
        0.0
      ]
    },
    {
      "bufferView": 9,
      "componentType": 5123,
      "count": 1757,
      "type": "VEC4",
      "max": [
        19.0,
        19.0,
        19.0,
        0.0
      ],
      "min": [
        0.0,
        0.0,
        0.0,
        0.0
      ]
    },
    {
      "bufferView": 10,
      "componentType": 5126,
      "count": 1757,
      "type": "VEC4",
      "max": [
        1.0,
        0.5,
        0.19999998807907104,
        0.0
      ],
      "min": [
        0.43636366724967957,
        0.0,
        0.0,
        0.0
      ]
    }
  ],
  "asset": {
    "generator": "Plattar UnityGLTF (2019.2.18f1)",
    "version": "2.0"
  },
  "buffers": [
    {
      "uri": "Soldier_demo.bin",
      "byteLength": 190904
    }
  ],
  "bufferViews": [
    {
      "buffer": 0,
      "byteLength": 21084
    },
    {
      "buffer": 0,
      "byteOffset": 21084,
      "byteLength": 21084
    },
    {
      "buffer": 0,
      "byteOffset": 42168,
      "byteLength": 28112
    },
    {
      "buffer": 0,
      "byteOffset": 70280,
      "byteLength": 14056
    },
    {
      "buffer": 0,
      "byteOffset": 84336,
      "byteLength": 17328
    },
    {
      "buffer": 0,
      "byteOffset": 101664,
      "byteLength": 3624
    },
    {
      "buffer": 0,
      "byteOffset": 105288,
      "byteLength": 1280
    },
    {
      "buffer": 0,
      "byteOffset": 106568,
      "byteLength": 14056
    },
    {
      "buffer": 0,
      "byteOffset": 120624,
      "byteLength": 28112
    },
    {
      "buffer": 0,
      "byteOffset": 148736,
      "byteLength": 14056
    },
    {
      "buffer": 0,
      "byteOffset": 162792,
      "byteLength": 28112
    }
  ],
  "materials": [
    {
      "name": "demo_soldier_512"
    },
    {
      "name": "demo_weapon"
    }
  ],
  "meshes": [
    {
      "primitives": [
        {
          "attributes": {
            "POSITION": 0,
            "NORMAL": 1,
            "TANGENT": 2,
            "TEXCOORD_0": 3,
            "JOINTS_0": 7,
            "WEIGHTS_0": 8
          },
          "indices": 4,
          "material": 0
        },
        {
          "attributes": {
            "POSITION": 0,
            "NORMAL": 1,
            "TANGENT": 2,
            "TEXCOORD_0": 3,
            "JOINTS_0": 9,
            "WEIGHTS_0": 10
          },
          "indices": 5,
          "material": 1
        }
      ],
      "name": "Soldier_mesh"
    }
  ],
  "nodes": [
    {
      "children": [
        1,
        31
      ],
      "rotation": [
        0.0,
        0.7071068,
        0.0,
        0.7071068
      ],
      "scale": [
        0.7000001,
        0.75,
        0.80000025
      ],
      "translation": [
        0.0,
        0.0,
        2.14
      ],
      "name": "Soldier_demo"
    },
    {
      "children": [
        2,
        3
      ],
      "rotation": [
        -0.500000358,
        0.499999642,
        -0.499999642,
        -0.500000358
      ],
      "scale": [
        0.99999994,
        0.99999994,
        1.0
      ],
      "translation": [
        0.0,
        1.28566635,
        0.02168165
      ],
      "name": "Bip001"
    },
    {
      "rotation": [
        0.0,
        0.0,
        0.7071063,
        -0.707107246
      ],
      "translation": [
        0.0,
        0.0,
        1.27147865
      ],
      "name": "Bip001 Footsteps"
    },
    {
      "children": [
        4,
        9,
        14
      ],
      "rotation": [
        -0.5,
        0.5,
        -0.4999993,
        -0.5000007
      ],
      "scale": [
        1.0,
        0.99999994,
        0.99999994
      ],
      "name": "Bip001 Pelvis"
    },
    {
      "children": [
        5
      ],
      "rotation": [
        0.0117992759,
        0.9999168,
        0.000366889435,
        -0.00520164054
      ],
      "scale": [
        0.99999994,
        1.0,
        1.0
      ],
      "translation": [
        1.93786619E-07,
        2.846241E-07,
        -0.165124059
      ],
      "name": "Bip001 L Thigh"
    },
    {
      "children": [
        6
      ],
      "rotation": [
        1.54725885E-11,
        -1.39720147E-09,
        -0.0318984464,
        -0.999491155
      ],
      "scale": [
        0.99999994,
        0.9999998,
        0.99999994
      ],
      "translation": [
        -0.629756749,
        0.0,
        0.0
      ],
      "name": "Bip001 L Calf"
    },
    {
      "children": [
        7
      ],
      "rotation": [
        -0.000200055321,
        0.00521136029,
        0.04368905,
        -0.999031544
      ],
      "scale": [
        1.0,
        1.00000012,
        1.0
      ],
      "translation": [
        -0.510093451,
        -6.055832E-09,
        1.21116637E-08
      ],
      "name": "Bip001 L Foot"
    },
    {
      "children": [
        8
      ],
      "rotation": [
        1.54543116E-08,
        -1.54543116E-08,
        0.7071068,
        -0.7071068
      ],
      "scale": [
        0.99999994,
        1.0,
        0.99999994
      ],
      "translation": [
        -0.133812889,
        0.142772824,
        0.0
      ],
      "name": "Bip001 L Toe0"
    },
    {
      "rotation": [
        9.553441E-16,
        1.75553E-30,
        -1.0,
        1.83758927E-15
      ],
      "scale": [
        -0.99999994,
        -1.0,
        -0.99999994
      ],
      "translation": [
        -0.124568872,
        0.0,
        0.0
      ],
      "name": "Bip001 L Toe0Nub"
    },
    {
      "children": [
        10
      ],
      "rotation": [
        0.0117992815,
        0.9999168,
        -0.000365485379,
        0.005203099
      ],
      "translation": [
        -1.93786619E-07,
        -1.72591214E-07,
        0.165124059
      ],
      "name": "Bip001 R Thigh"
    },
    {
      "children": [
        11
      ],
      "rotation": [
        -2.97077432E-11,
        9.30848731E-10,
        -0.0318984464,
        -0.999491155
      ],
      "scale": [
        0.99999994,
        0.9999998,
        0.99999994
      ],
      "translation": [
        -0.629756749,
        0.0,
        0.0
      ],
      "name": "Bip001 R Calf"
    },
    {
      "children": [
        12
      ],
      "rotation": [
        0.00020005148,
        -0.00521144737,
        0.04368905,
        -0.999031544
      ],
      "scale": [
        1.0,
        1.00000012,
        1.0
      ],
      "translation": [
        -0.510093451,
        6.055832E-09,
        -2.42233273E-08
      ],
      "name": "Bip001 R Foot"
    },
    {
      "children": [
        13
      ],
      "rotation": [
        -1.545431E-08,
        1.545431E-08,
        0.7071068,
        -0.7071068
      ],
      "scale": [
        0.99999994,
        1.0,
        0.99999994
      ],
      "translation": [
        -0.133812889,
        0.142772824,
        0.0
      ],
      "name": "Bip001 R Toe0"
    },
    {
      "rotation": [
        1.69702734E-30,
        -9.553415E-16,
        -1.776357E-15,
        -1.0
      ],
      "scale": [
        0.99999994,
        1.0,
        0.99999994
      ],
      "translation": [
        -0.124568872,
        0.0,
        0.0
      ],
      "name": "Bip001 R Toe0Nub"
    },
    {
      "children": [
        15
      ],
      "rotation": [
        -2.09532254E-06,
        7.08875632E-07,
        0.0225733463,
        -0.9997452
      ],
      "scale": [
        1.0,
        1.0,
        0.99999994
      ],
      "translation": [
        -0.158881873,
        -0.000250779558,
        -2.20685251E-07
      ],
      "name": "Bip001 Spine"
    },
    {
      "children": [
        16,
        22,
        25
      ],
      "rotation": [
        -3.997937E-14,
        -1.07625183E-07,
        -0.03880342,
        -0.999246836
      ],
      "scale": [
        1.00000012,
        1.00000012,
        1.0
      ],
      "translation": [
        -0.315317571,
        -0.000240162175,
        6.661221E-10
      ],
      "name": "Bip001 Spine1"
    },
    {
      "children": [
        17
      ],
      "rotation": [
        -0.6408772,
        -0.000256239029,
        -0.767643332,
        0.0003047534
      ],
      "scale": [
        1.00000012,
        1.00000012,
        1.00000012
      ],
      "translation": [
        -0.29195407,
        -0.000343962165,
        -0.08171383
      ],
      "name": "Bip001 L Clavicle"
    },
    {
      "children": [
        18
      ],
      "rotation": [
        0.0401763879,
        -0.340596825,
        -0.0146071063,
        -0.939237058
      ],
      "scale": [
        1.0,
        1.00000012,
        1.0
      ],
      "translation": [
        -0.19370845,
        6.055832E-09,
        0.0
      ],
      "name": "Bip001 L UpperArm"
    },
    {
      "children": [
        19
      ],
      "rotation": [
        2.04891837E-08,
        -5.79219446E-08,
        -0.09487927,
        -0.9954888
      ],
      "scale": [
        1.0,
        1.0,
        1.00000012
      ],
      "translation": [
        -0.43241632,
        0.0,
        0.0
      ],
      "name": "Bip001 L Forearm"
    },
    {
      "children": [
        20
      ],
      "rotation": [
        -0.7067734,
        -0.06663607,
        0.008636268,
        -0.704241753
      ],
      "translation": [
        -0.3868162,
        1.21116637E-08,
        9.689331E-08
      ],
      "name": "Bip001 L Hand"
    },
    {
      "children": [
        21
      ],
      "rotation": [
        -0.000385133171,
        -0.000101047684,
        0.253786266,
        -0.9672603
      ],
      "scale": [
        1.0,
        1.0,
        1.00000012
      ],
      "translation": [
        -0.131744623,
        0.0,
        -1.21116637E-08
      ],
      "name": "Bip001 L Finger0"
    },
    {
      "rotation": [
        -5.587936E-09,
        7.450581E-09,
        -3.72529074E-09,
        -1.0
      ],
      "scale": [
        0.99999994,
        0.99999994,
        0.99999994
      ],
      "translation": [
        -0.113631919,
        -9.689331E-08,
        -1.21116637E-08
      ],
      "name": "Bip001 L Finger0Nub"
    },
    {
      "children": [
        23
      ],
      "rotation": [
        -4.31516158E-14,
        3.60833724E-07,
        0.1300958,
        -0.991501451
      ],
      "scale": [
        1.00000012,
        1.00000012,
        1.0
      ],
      "translation": [
        -0.365330219,
        0.0171634983,
        -2.67586344E-08
      ],
      "name": "Bip001 Neck"
    },
    {
      "children": [
        24
      ],
      "rotation": [
        -2.6354163E-13,
        -3.16133367E-07,
        -0.113980122,
        -0.993483
      ],
      "scale": [
        0.99999994,
        0.99999994,
        1.0
      ],
      "translation": [
        -0.116820969,
        -4.84466547E-08,
        0.0
      ],
      "name": "Bip001 Head"
    },
    {
      "rotation": [
        -4.11746566E-20,
        -3.38813179E-21,
        1.395049E-40,
        -1.0
      ],
      "scale": [
        1.0,
        0.99999994,
        0.99999994
      ],
      "translation": [
        -0.310481638,
        1.513958E-09,
        0.0
      ],
      "name": "Bip001 HeadNub"
    },
    {
      "children": [
        26
      ],
      "rotation": [
        0.6408772,
        0.000254109822,
        -0.767643332,
        0.000306530826
      ],
      "scale": [
        1.00000012,
        1.00000012,
        1.00000012
      ],
      "translation": [
        -0.29195407,
        -0.000343507971,
        0.0817138255
      ],
      "name": "Bip001 R Clavicle"
    },
    {
      "children": [
        27
      ],
      "rotation": [
        -0.0401763953,
        0.340596825,
        -0.01460711,
        -0.939237058
      ],
      "scale": [
        1.0,
        1.0,
        1.00000012
      ],
      "translation": [
        -0.193708479,
        6.055832E-09,
        0.0
      ],
      "name": "Bip001 R UpperArm"
    },
    {
      "children": [
        28
      ],
      "rotation": [
        -1.53668882E-08,
        4.34414567E-08,
        -0.09487927,
        -0.9954888
      ],
      "scale": [
        1.00000012,
        1.0,
        1.0
      ],
      "translation": [
        -0.43241623,
        0.0,
        0.0
      ],
      "name": "Bip001 R Forearm"
    },
    {
      "children": [
        29
      ],
      "rotation": [
        0.7067734,
        0.0666360855,
        0.008636254,
        -0.704241753
      ],
      "scale": [
        1.0,
        1.00000012,
        1.00000012
      ],
      "translation": [
        -0.3868161,
        6.055832E-09,
        9.689331E-08
      ],
      "name": "Bip001 R Hand"
    },
    {
      "children": [
        30
      ],
      "rotation": [
        0.00038511696,
        0.000101051919,
        0.253786266,
        -0.9672603
      ],
      "scale": [
        1.0,
        0.99999994,
        1.00000012
      ],
      "translation": [
        -0.131744668,
        0.0,
        0.0
      ],
      "name": "Bip001 R Finger0"
    },
    {
      "rotation": [
        7.45057971E-09,
        -3.72528985E-09,
        -1.0,
        -3.72528985E-09
      ],
      "scale": [
        -1.00000012,
        -1.00000012,
        -1.00000012
      ],
      "translation": [
        -0.113631822,
        9.689331E-08,
        1.21116637E-08
      ],
      "name": "Bip001 R Finger0Nub"
    },
    {
      "skin": 0,
      "mesh": 0,
      "rotation": [
        -0.7071068,
        0.0,
        0.0,
        -0.7071068
      ],
      "name": "Soldier_mesh"
    }
  ],
  "scene": 0,
  "scenes": [
    {
      "nodes": [
        0
      ],
      "name": "Soldier_demo"
    }
  ],
  "skins": [
    {
      "inverseBindMatrices": 6,
      "joints": [
        14,
        15,
        3,
        4,
        5,
        9,
        6,
        7,
        10,
        11,
        12,
        23,
        18,
        19,
        17,
        20,
        27,
        28,
        26,
        29
      ]
    }
  ]
}